<svg width="553" height="494" viewBox="0 0 553 494" fill="none" xmlns="http://www.w3.org/2000/svg">
<g clip-path="url(#clip0_214_52)">
<g opacity="0.3">
<path d="M381.61 274.355H323.04C320.966 274.355 319.284 276.38 319.284 278.879V293.893C319.284 296.391 320.966 298.416 323.04 298.416H381.61C383.685 298.416 385.366 296.391 385.366 293.893V278.879C385.366 276.38 383.685 274.355 381.61 274.355Z" fill="#F2F2F2"/>
<path d="M450.766 298.416H392.195C390.121 298.416 388.439 300.442 388.439 302.94V317.954C388.439 320.452 390.121 322.478 392.195 322.478H450.766C452.84 322.478 454.521 320.452 454.521 317.954V302.94C454.521 300.442 452.84 298.416 450.766 298.416Z" fill="#F2F2F2"/>
<path d="M519.926 322.484H461.356C459.282 322.484 457.6 324.509 457.6 327.007V342.021C457.6 344.52 459.282 346.545 461.356 346.545H519.926C522.001 346.545 523.682 344.52 523.682 342.021V327.007C523.682 324.509 522.001 322.484 519.926 322.484Z" fill="#F2F2F2"/>
<path d="M381.61 238.257H323.04C320.966 238.257 319.284 240.282 319.284 242.781V257.795C319.284 260.293 320.966 262.318 323.04 262.318H381.61C383.685 262.318 385.366 260.293 385.366 257.795V242.781C385.366 240.282 383.685 238.257 381.61 238.257Z" fill="#F2F2F2"/>
<path d="M450.766 262.324H392.195C390.121 262.324 388.439 264.35 388.439 266.848V281.862C388.439 284.36 390.121 286.386 392.195 286.386H450.766C452.84 286.386 454.521 284.36 454.521 281.862V266.848C454.521 264.35 452.84 262.324 450.766 262.324Z" fill="#F2F2F2"/>
<path d="M519.926 286.386H461.356C459.282 286.386 457.6 288.411 457.6 290.909V305.923C457.6 308.422 459.282 310.447 461.356 310.447H519.926C522.001 310.447 523.682 308.422 523.682 305.923V290.909C523.682 288.411 522.001 286.386 519.926 286.386Z" fill="#F2F2F2"/>
<path d="M381.61 190.134H323.04C320.966 190.134 319.284 192.16 319.284 194.658V209.672C319.284 212.17 320.966 214.196 323.04 214.196H381.61C383.685 214.196 385.366 212.17 385.366 209.672V194.658C385.366 192.16 383.685 190.134 381.61 190.134Z" fill="#F2F2F2"/>
<path d="M450.766 214.196H392.195C390.121 214.196 388.439 216.221 388.439 218.719V233.733C388.439 236.232 390.121 238.257 392.195 238.257H450.766C452.84 238.257 454.521 236.232 454.521 233.733V218.719C454.521 216.221 452.84 214.196 450.766 214.196Z" fill="#F2F2F2"/>
<path d="M519.926 238.257H461.356C459.282 238.257 457.6 240.282 457.6 242.781V257.795C457.6 260.293 459.282 262.318 461.356 262.318H519.926C522.001 262.318 523.682 260.293 523.682 257.795V242.781C523.682 240.282 522.001 238.257 519.926 238.257Z" fill="#F2F2F2"/>
<path d="M381.61 154.036H323.04C320.966 154.036 319.284 156.062 319.284 158.56V173.574C319.284 176.072 320.966 178.098 323.04 178.098H381.61C383.685 178.098 385.366 176.072 385.366 173.574V158.56C385.366 156.062 383.685 154.036 381.61 154.036Z" fill="#F2F2F2"/>
<path d="M450.766 178.098H392.195C390.121 178.098 388.439 180.123 388.439 182.621V197.635C388.439 200.134 390.121 202.159 392.195 202.159H450.766C452.84 202.159 454.521 200.134 454.521 197.635V182.621C454.521 180.123 452.84 178.098 450.766 178.098Z" fill="#F2F2F2"/>
<path d="M519.926 202.165H461.356C459.282 202.165 457.6 204.19 457.6 206.689V221.703C457.6 224.201 459.282 226.226 461.356 226.226H519.926C522.001 226.226 523.682 224.201 523.682 221.703V206.689C523.682 204.19 522.001 202.165 519.926 202.165Z" fill="#F2F2F2"/>
<path opacity="0.1" d="M381.61 274.355H323.04C320.966 274.355 319.284 276.38 319.284 278.879V293.893C319.284 296.391 320.966 298.416 323.04 298.416H381.61C383.685 298.416 385.366 296.391 385.366 293.893V278.879C385.366 276.38 383.685 274.355 381.61 274.355Z" fill="#6C63FF"/>
<path opacity="0.1" d="M450.766 298.416H392.195C390.121 298.416 388.439 300.442 388.439 302.94V317.954C388.439 320.452 390.121 322.478 392.195 322.478H450.766C452.84 322.478 454.521 320.452 454.521 317.954V302.94C454.521 300.442 452.84 298.416 450.766 298.416Z" fill="#6C63FF"/>
<path opacity="0.1" d="M519.926 322.484H461.356C459.282 322.484 457.6 324.509 457.6 327.007V342.021C457.6 344.52 459.282 346.545 461.356 346.545H519.926C522.001 346.545 523.682 344.52 523.682 342.021V327.007C523.682 324.509 522.001 322.484 519.926 322.484Z" fill="#6C63FF"/>
<path opacity="0.1" d="M381.61 238.257H323.04C320.966 238.257 319.284 240.282 319.284 242.781V257.795C319.284 260.293 320.966 262.318 323.04 262.318H381.61C383.685 262.318 385.366 260.293 385.366 257.795V242.781C385.366 240.282 383.685 238.257 381.61 238.257Z" fill="#6C63FF"/>
<path opacity="0.1" d="M450.766 262.324H392.195C390.121 262.324 388.439 264.35 388.439 266.848V281.862C388.439 284.36 390.121 286.386 392.195 286.386H450.766C452.84 286.386 454.521 284.36 454.521 281.862V266.848C454.521 264.35 452.84 262.324 450.766 262.324Z" fill="#6C63FF"/>
<path opacity="0.1" d="M519.926 286.386H461.356C459.282 286.386 457.6 288.411 457.6 290.909V305.923C457.6 308.422 459.282 310.447 461.356 310.447H519.926C522.001 310.447 523.682 308.422 523.682 305.923V290.909C523.682 288.411 522.001 286.386 519.926 286.386Z" fill="#6C63FF"/>
<path opacity="0.1" d="M381.61 190.134H323.04C320.966 190.134 319.284 192.16 319.284 194.658V209.672C319.284 212.17 320.966 214.196 323.04 214.196H381.61C383.685 214.196 385.366 212.17 385.366 209.672V194.658C385.366 192.16 383.685 190.134 381.61 190.134Z" fill="#6C63FF"/>
<path opacity="0.1" d="M450.766 214.196H392.195C390.121 214.196 388.439 216.221 388.439 218.719V233.733C388.439 236.232 390.121 238.257 392.195 238.257H450.766C452.84 238.257 454.521 236.232 454.521 233.733V218.719C454.521 216.221 452.84 214.196 450.766 214.196Z" fill="#6C63FF"/>
<path opacity="0.1" d="M519.926 238.257H461.356C459.282 238.257 457.6 240.282 457.6 242.781V257.795C457.6 260.293 459.282 262.318 461.356 262.318H519.926C522.001 262.318 523.682 260.293 523.682 257.795V242.781C523.682 240.282 522.001 238.257 519.926 238.257Z" fill="#6C63FF"/>
<path opacity="0.1" d="M381.61 154.036H323.04C320.966 154.036 319.284 156.062 319.284 158.56V173.574C319.284 176.072 320.966 178.098 323.04 178.098H381.61C383.685 178.098 385.366 176.072 385.366 173.574V158.56C385.366 156.062 383.685 154.036 381.61 154.036Z" fill="#6C63FF"/>
<path opacity="0.1" d="M450.766 178.098H392.195C390.121 178.098 388.439 180.123 388.439 182.621V197.635C388.439 200.134 390.121 202.159 392.195 202.159H450.766C452.84 202.159 454.521 200.134 454.521 197.635V182.621C454.521 180.123 452.84 178.098 450.766 178.098Z" fill="#6C63FF"/>
<path opacity="0.1" d="M519.926 202.165H461.356C459.282 202.165 457.6 204.19 457.6 206.689V221.703C457.6 224.201 459.282 226.226 461.356 226.226H519.926C522.001 226.226 523.682 224.201 523.682 221.703V206.689C523.682 204.19 522.001 202.165 519.926 202.165Z" fill="#6C63FF"/>
</g>
<g opacity="0.3">
<path d="M122.802 120.319H64.2318C62.1576 120.319 60.4761 122.344 60.4761 124.842V139.856C60.4761 142.355 62.1576 144.38 64.2318 144.38H122.802C124.877 144.38 126.558 142.355 126.558 139.856V124.842C126.558 122.344 124.877 120.319 122.802 120.319Z" fill="#F2F2F2"/>
<path d="M191.958 144.38H133.387C131.313 144.38 129.631 146.405 129.631 148.904V163.918C129.631 166.416 131.313 168.441 133.387 168.441H191.958C194.032 168.441 195.713 166.416 195.713 163.918V148.904C195.713 146.405 194.032 144.38 191.958 144.38Z" fill="#F2F2F2"/>
<path d="M261.118 168.447H202.548C200.474 168.447 198.792 170.473 198.792 172.971V187.985C198.792 190.483 200.474 192.509 202.548 192.509H261.118C263.192 192.509 264.874 190.483 264.874 187.985V172.971C264.874 170.473 263.192 168.447 261.118 168.447Z" fill="#F2F2F2"/>
<path d="M122.802 84.2206H64.2318C62.1576 84.2206 60.4761 86.246 60.4761 88.7443V103.758C60.4761 106.257 62.1576 108.282 64.2318 108.282H122.802C124.877 108.282 126.558 106.257 126.558 103.758V88.7443C126.558 86.246 124.877 84.2206 122.802 84.2206Z" fill="#F2F2F2"/>
<path d="M191.958 108.288H133.387C131.313 108.288 129.631 110.313 129.631 112.812V127.826C129.631 130.324 131.313 132.349 133.387 132.349H191.958C194.032 132.349 195.713 130.324 195.713 127.826V112.812C195.713 110.313 194.032 108.288 191.958 108.288Z" fill="#F2F2F2"/>
<path d="M261.118 132.349H202.548C200.474 132.349 198.792 134.375 198.792 136.873V151.887C198.792 154.385 200.474 156.411 202.548 156.411H261.118C263.192 156.411 264.874 154.385 264.874 151.887V136.873C264.874 134.375 263.192 132.349 261.118 132.349Z" fill="#F2F2F2"/>
<path d="M122.802 36.098H64.2318C62.1576 36.098 60.4761 38.1233 60.4761 40.6217V55.6356C60.4761 58.134 62.1576 60.1593 64.2318 60.1593H122.802C124.877 60.1593 126.558 58.134 126.558 55.6356V40.6217C126.558 38.1233 124.877 36.098 122.802 36.098Z" fill="#F2F2F2"/>
<path d="M191.958 60.1593H133.387C131.313 60.1593 129.631 62.1846 129.631 64.683V79.6969C129.631 82.1953 131.313 84.2206 133.387 84.2206H191.958C194.032 84.2206 195.713 82.1953 195.713 79.6969V64.683C195.713 62.1846 194.032 60.1593 191.958 60.1593Z" fill="#F2F2F2"/>
<path d="M261.118 84.2206H202.548C200.474 84.2206 198.792 86.246 198.792 88.7443V103.758C198.792 106.257 200.474 108.282 202.548 108.282H261.118C263.192 108.282 264.874 106.257 264.874 103.758V88.7443C264.874 86.246 263.192 84.2206 261.118 84.2206Z" fill="#F2F2F2"/>
<path d="M122.802 -9.15527e-05H64.2318C62.1576 -9.15527e-05 60.4761 2.02523 60.4761 4.52358V19.5376C60.4761 22.0359 62.1576 24.0612 64.2318 24.0612H122.802C124.877 24.0612 126.558 22.0359 126.558 19.5376V4.52358C126.558 2.02523 124.877 -9.15527e-05 122.802 -9.15527e-05Z" fill="#F2F2F2"/>
<path d="M191.958 24.0612H133.387C131.313 24.0612 129.631 26.0866 129.631 28.5849V43.5989C129.631 46.0973 131.313 48.1226 133.387 48.1226H191.958C194.032 48.1226 195.713 46.0973 195.713 43.5989V28.5849C195.713 26.0866 194.032 24.0612 191.958 24.0612Z" fill="#F2F2F2"/>
<path d="M261.118 48.1287H202.548C200.474 48.1287 198.792 50.154 198.792 52.6523V67.6663C198.792 70.1647 200.474 72.19 202.548 72.19H261.118C263.192 72.19 264.874 70.1647 264.874 67.6663V52.6523C264.874 50.154 263.192 48.1287 261.118 48.1287Z" fill="#F2F2F2"/>
<path opacity="0.1" d="M122.802 120.319H64.2318C62.1576 120.319 60.4761 122.344 60.4761 124.842V139.856C60.4761 142.355 62.1576 144.38 64.2318 144.38H122.802C124.877 144.38 126.558 142.355 126.558 139.856V124.842C126.558 122.344 124.877 120.319 122.802 120.319Z" fill="#6C63FF"/>
<path opacity="0.1" d="M191.958 144.38H133.387C131.313 144.38 129.631 146.405 129.631 148.904V163.918C129.631 166.416 131.313 168.441 133.387 168.441H191.958C194.032 168.441 195.713 166.416 195.713 163.918V148.904C195.713 146.405 194.032 144.38 191.958 144.38Z" fill="#6C63FF"/>
<path opacity="0.1" d="M261.118 168.447H202.548C200.474 168.447 198.792 170.473 198.792 172.971V187.985C198.792 190.483 200.474 192.509 202.548 192.509H261.118C263.192 192.509 264.874 190.483 264.874 187.985V172.971C264.874 170.473 263.192 168.447 261.118 168.447Z" fill="#6C63FF"/>
<path opacity="0.1" d="M122.802 84.2206H64.2318C62.1576 84.2206 60.4761 86.246 60.4761 88.7443V103.758C60.4761 106.257 62.1576 108.282 64.2318 108.282H122.802C124.877 108.282 126.558 106.257 126.558 103.758V88.7443C126.558 86.246 124.877 84.2206 122.802 84.2206Z" fill="#6C63FF"/>
<path opacity="0.1" d="M191.958 108.288H133.387C131.313 108.288 129.631 110.313 129.631 112.812V127.826C129.631 130.324 131.313 132.349 133.387 132.349H191.958C194.032 132.349 195.713 130.324 195.713 127.826V112.812C195.713 110.313 194.032 108.288 191.958 108.288Z" fill="#6C63FF"/>
<path opacity="0.1" d="M261.118 132.349H202.548C200.474 132.349 198.792 134.375 198.792 136.873V151.887C198.792 154.385 200.474 156.411 202.548 156.411H261.118C263.192 156.411 264.874 154.385 264.874 151.887V136.873C264.874 134.375 263.192 132.349 261.118 132.349Z" fill="#6C63FF"/>
<path opacity="0.1" d="M122.802 36.098H64.2318C62.1576 36.098 60.4761 38.1233 60.4761 40.6217V55.6356C60.4761 58.134 62.1576 60.1593 64.2318 60.1593H122.802C124.877 60.1593 126.558 58.134 126.558 55.6356V40.6217C126.558 38.1233 124.877 36.098 122.802 36.098Z" fill="#6C63FF"/>
<path opacity="0.1" d="M191.958 60.1593H133.387C131.313 60.1593 129.631 62.1846 129.631 64.683V79.6969C129.631 82.1953 131.313 84.2206 133.387 84.2206H191.958C194.032 84.2206 195.713 82.1953 195.713 79.6969V64.683C195.713 62.1846 194.032 60.1593 191.958 60.1593Z" fill="#6C63FF"/>
<path opacity="0.1" d="M261.118 84.2206H202.548C200.474 84.2206 198.792 86.246 198.792 88.7443V103.758C198.792 106.257 200.474 108.282 202.548 108.282H261.118C263.192 108.282 264.874 106.257 264.874 103.758V88.7443C264.874 86.246 263.192 84.2206 261.118 84.2206Z" fill="#6C63FF"/>
<path opacity="0.1" d="M122.802 -9.15527e-05H64.2318C62.1576 -9.15527e-05 60.4761 2.02523 60.4761 4.52358V19.5376C60.4761 22.0359 62.1576 24.0612 64.2318 24.0612H122.802C124.877 24.0612 126.558 22.0359 126.558 19.5376V4.52358C126.558 2.02523 124.877 -9.15527e-05 122.802 -9.15527e-05Z" fill="#6C63FF"/>
<path opacity="0.1" d="M191.958 24.0612H133.387C131.313 24.0612 129.631 26.0866 129.631 28.5849V43.5989C129.631 46.0973 131.313 48.1226 133.387 48.1226H191.958C194.032 48.1226 195.713 46.0973 195.713 43.5989V28.5849C195.713 26.0866 194.032 24.0612 191.958 24.0612Z" fill="#6C63FF"/>
<path opacity="0.1" d="M261.118 48.1287H202.548C200.474 48.1287 198.792 50.154 198.792 52.6523V67.6663C198.792 70.1647 200.474 72.19 202.548 72.19H261.118C263.192 72.19 264.874 70.1647 264.874 67.6663V52.6523C264.874 50.154 263.192 48.1287 261.118 48.1287Z" fill="#6C63FF"/>
</g>
<g opacity="0.1">
<path d="M149.426 336.201C149.434 339.652 149.139 343.095 148.547 346.472C148.436 347.081 148.314 347.732 148.193 348.341C145.074 363.422 136.264 374.454 125.755 375.13C125.406 375.13 125.052 375.167 124.688 375.167C113.567 375.167 104.176 363.599 101.077 347.72C100.986 347.294 100.91 346.874 100.834 346.448C100.242 343.071 99.9471 339.628 99.9547 336.177C99.9547 314.63 111.025 297.211 124.688 297.211C138.351 297.211 149.426 314.654 149.426 336.201Z" fill="#3F3D56"/>
<path opacity="0.1" d="M149.426 336.201C149.434 339.652 149.139 343.095 148.547 346.472C148.436 347.081 148.314 347.732 148.193 348.341C147.819 348.341 147.455 348.341 147.086 348.286C144.364 348.107 141.66 347.661 138.998 346.953C136.638 347.829 134.227 348.493 131.785 348.938C129.912 349.268 128.025 349.471 126.134 349.547C125.497 349.547 124.86 349.589 124.223 349.589C121.958 349.588 119.695 349.407 117.449 349.047C113.825 348.458 110.266 347.393 106.834 345.869C104.954 346.615 103.038 347.225 101.097 347.696C101.006 347.27 100.93 346.85 100.854 346.423C100.262 343.046 99.9671 339.604 99.9748 336.152C99.9748 314.605 111.045 297.187 124.708 297.187C138.371 297.187 149.426 314.654 149.426 336.201Z" fill="black"/>
<path d="M202.194 263.548C202.204 254.069 200.36 244.72 196.81 236.26L167.72 247.152L193.252 229.07C188.971 221.616 183.354 215.416 176.817 210.928C170.279 206.439 162.988 203.778 155.482 203.139C154.289 200.955 152.981 198.867 151.564 196.886L109.746 212.552L144.013 188.283C137.459 182.235 129.77 178.224 121.624 176.604C113.478 174.984 105.126 175.805 97.306 178.994C89.486 182.184 82.4384 187.644 76.7855 194.891C71.1327 202.139 67.0487 210.952 64.8941 220.552L100.687 270.178L61.8056 236.376C51.9732 244.776 44.9733 257.151 42.0811 271.246C39.1889 285.341 40.5969 300.219 46.0486 313.169C51.5003 326.119 60.6329 336.279 71.7826 341.798C82.9323 347.317 95.3572 347.829 106.794 343.239C117.148 347.818 128.461 348.192 139.008 344.305C146.357 346.261 153.976 346.207 161.305 344.145C168.634 342.084 175.486 338.068 181.355 332.394C187.224 326.72 191.962 319.532 195.218 311.36C198.475 303.187 200.168 294.239 200.172 285.174C200.172 283.829 200.131 282.495 200.061 281.168C201.489 275.453 202.207 269.516 202.194 263.548Z" fill="#6C63FF"/>
<path opacity="0.1" d="M201.329 274.781C185.966 271.273 170.212 271.032 154.779 274.069C137.315 277.551 119.461 285.205 102.376 279.609C92.3521 276.322 83.6729 268.723 73.8918 264.51C64.4428 260.528 54.2606 259.788 44.4827 262.373C40.7531 273.109 39.6694 284.911 41.361 296.369C43.0525 307.827 47.4478 318.456 54.0215 326.985C60.5952 335.514 69.069 341.583 78.4301 344.465C87.7911 347.347 97.6433 346.922 106.809 343.239C117.158 347.814 128.466 348.188 139.008 344.305C146.357 346.261 153.976 346.207 161.305 344.145C168.634 342.084 175.486 338.068 181.355 332.394C187.224 326.72 191.962 319.532 195.218 311.36C198.475 303.187 200.168 294.239 200.172 285.174C200.172 283.829 200.131 282.495 200.061 281.168C200.58 279.069 201.004 276.936 201.329 274.781Z" fill="black"/>
</g>
<path opacity="0.1" d="M276.5 486.523C429.207 486.523 553 459.401 553 425.944C553 392.487 429.207 365.364 276.5 365.364C123.793 365.364 0 392.487 0 425.944C0 459.401 123.793 486.523 276.5 486.523Z" fill="#6C63FF"/>
<path d="M367.325 432.927C367.697 431.096 368.435 429.402 369.475 427.993C370.515 426.584 371.825 425.502 373.291 424.842C374.757 424.182 376.335 423.963 377.887 424.205C379.439 424.447 380.919 425.142 382.197 426.23L382.591 426.577C391.048 434.212 386.028 448.215 382.591 448.532C379.154 448.848 372.542 449.189 372.542 449.189C372.542 449.189 364.752 445.317 367.325 432.927Z" fill="#192534"/>
<path d="M443.623 423.411V425.956C443.623 425.956 409.25 428.818 405.58 428.818H398.711C398.711 428.818 398.61 428.945 398.443 429.177C398.16 429.56 397.68 430.236 397.149 431.076C396.067 432.769 394.778 435.131 394.48 437.092C393.975 440.593 392.104 441.865 392.104 441.865L385.235 439.643L378.608 430.096L377.642 428.976L374.893 425.816L372.542 423.107L372.658 421.585V421.353C373.22 418.083 373.939 414.855 374.812 411.685C374.812 411.6 374.857 411.508 374.882 411.423C376.788 404.531 379.968 396.159 384.547 393.669C384.896 393.481 385.26 393.298 385.649 393.134L386.114 392.939C394.9 389.395 411.5 390.802 411.5 390.802C411.5 390.802 424.177 395.258 425.239 397.17C426.3 399.082 438.316 414.826 438.316 414.826C439.37 415.784 440.342 416.867 441.217 418.059C442.344 419.563 443.391 421.457 443.623 423.411Z" fill="#6C63FF"/>
<path opacity="0.1" d="M371.496 444.416C373.539 444.416 375.196 441.281 375.196 437.414C375.196 433.547 373.539 430.413 371.496 430.413C369.452 430.413 367.795 433.547 367.795 437.414C367.795 441.281 369.452 444.416 371.496 444.416Z" fill="white"/>
<path opacity="0.1" d="M386.822 396.044C386.822 396.044 383.789 401.645 380.584 408.829C380.583 408.848 380.583 408.866 380.584 408.884C379.73 410.796 378.861 412.811 378.032 414.875L377.996 414.973C377.996 414.973 376.242 413.298 374.862 411.667C374.862 411.581 374.908 411.49 374.933 411.405C376.839 404.513 380.018 396.141 384.598 393.651C384.947 393.462 385.311 393.28 385.7 393.115L386.822 396.044Z" fill="black"/>
<path opacity="0.1" d="M377.839 414.82C377.839 414.82 396.598 421.518 400.293 418.638C400.293 418.638 401.617 398.272 392.898 397C392.898 397 387.878 395.404 386.832 396.391C385.786 397.377 377.839 414.82 377.839 414.82Z" fill="white"/>
<path opacity="0.1" d="M402.143 399.861C402.143 399.861 405.843 416.726 408.487 417.049C411.131 417.371 437.805 416.726 436.754 414.498C435.702 412.269 424.071 397.956 424.071 397.956L402.143 399.861Z" fill="white"/>
<path d="M397.604 430.376C397.604 430.376 402.406 422.772 410.863 430.413C419.32 438.054 414.295 452.051 410.863 452.367C407.431 452.684 400.849 453.007 400.849 453.007C400.849 453.007 390.421 447.844 397.604 430.376Z" fill="#192534"/>
<path d="M447.48 432.312C447.128 431.111 446.573 430.01 445.85 429.079C445.127 428.149 444.252 427.409 443.28 426.907C442.307 426.405 441.259 426.151 440.201 426.161C439.143 426.171 438.098 426.446 437.133 426.967C436.188 427.503 435.294 428.158 434.464 428.921C426.937 435.716 431.431 448.179 434.464 448.465C435.561 448.562 437.022 448.666 438.442 448.757C439.896 448.85 441.349 448.535 442.685 447.838C444.021 447.14 445.204 446.079 446.142 444.737C447.08 443.395 447.746 441.809 448.089 440.104C448.432 438.399 448.441 436.622 448.117 434.912C447.946 434.032 447.733 433.164 447.48 432.312Z" fill="#192534"/>
<path opacity="0.1" d="M399.768 448.234C401.811 448.234 403.468 445.099 403.468 441.232C403.468 437.365 401.811 434.23 399.768 434.23C397.724 434.23 396.067 437.365 396.067 441.232C396.067 445.099 397.724 448.234 399.768 448.234Z" fill="white"/>
<path opacity="0.1" d="M410.069 427.868C410.069 427.868 409.564 418.638 417.732 422.455C425.901 426.273 420.639 430.413 420.639 430.413L410.069 427.868Z" fill="white"/>
<path opacity="0.1" d="M443.623 423.411V424.684L442.304 425.292L439.61 424.684C439.61 424.684 439.033 419.472 441.242 417.986C442.344 419.563 443.391 421.457 443.623 423.411Z" fill="white"/>
<path opacity="0.1" d="M443.623 423.472V425.956C443.623 425.956 409.25 428.818 405.58 428.818H405.55C403.649 427.6 401.749 427.058 400.152 427.868C399.665 428.11 399.208 428.429 398.792 428.818C398.67 428.933 398.554 429.055 398.443 429.177C397.939 429.733 397.503 430.373 397.149 431.076C394.783 435.685 395.289 442.821 395.289 442.821C388.419 445.366 381.287 438.687 381.287 438.687C379.993 434.011 378.785 430.961 377.678 428.945C376.667 427.119 375.747 426.224 374.928 425.786L372.542 423.107L372.658 421.585L391.831 438.376C391.831 438.376 393.681 424.056 397.897 425.012C402.113 425.968 410.58 425.968 410.58 425.968L443.623 423.472Z" fill="black"/>
<path d="M371.495 421.499C371.495 421.499 369.908 426.273 371.495 426.595C373.083 426.918 376.646 422.942 381.272 439.643C381.272 439.643 388.404 446.34 395.273 443.777C395.273 443.777 394.455 431.685 400.151 428.818C405.848 425.95 415.351 440.276 415.351 440.276V443.46L437.81 440.593C437.81 440.593 444.68 434.23 444.417 424.367L410.6 426.912C410.6 426.912 402.143 426.912 397.917 425.956C393.691 425 391.851 439.351 391.851 439.351L371.495 421.499Z" fill="#6C63FF"/>
<path d="M276.389 334.466H276.384C268.578 334.466 262.25 342.087 262.25 351.489V351.495C262.25 360.897 268.578 368.518 276.384 368.518H276.389C284.195 368.518 290.522 360.897 290.522 351.495V351.489C290.522 342.087 284.195 334.466 276.389 334.466Z" fill="#192534"/>
<path d="M268.983 395.307C270.879 393.304 272.805 391.264 274.17 388.713C275.423 386.375 276.161 383.703 276.854 381.048C278.832 373.462 280.535 365.78 281.964 358.003C274.185 356.573 268.377 348.299 260.769 345.869C260.587 345.808 254.769 387.916 254.344 391.764C253.996 394.942 250.983 410.12 254.415 410.205C256.25 410.254 260.082 404.726 261.436 403.271L268.983 395.307Z" fill="#3F3D56"/>
<path opacity="0.1" d="M268.983 395.307C270.879 393.304 272.805 391.264 274.17 388.713C275.423 386.375 276.161 383.703 276.854 381.048C278.832 373.462 280.535 365.78 281.964 358.003C274.185 356.573 268.377 348.299 260.769 345.869C260.587 345.808 254.769 387.916 254.344 391.764C253.996 394.942 250.983 410.12 254.415 410.205C256.25 410.254 260.082 404.726 261.436 403.271L268.983 395.307Z" fill="black"/>
<path d="M172.845 289.065C171.986 289.223 171.076 289.302 170.368 289.905C169.357 290.757 169.1 292.34 168.619 293.716C167.989 295.482 166.921 296.971 165.561 297.978C164.404 298.83 162.993 299.403 162.301 300.803C161.909 301.746 161.723 302.794 161.76 303.847C161.669 306.967 161.785 310.09 162.109 313.187C162.27 314.739 162.483 316.322 162.215 317.851C161.907 319.634 160.976 321.15 160.092 322.63C157.969 326.167 155.891 330.052 155.719 334.411C155.633 336.603 156.038 338.849 155.578 340.974C154.764 344.743 151.448 347.203 150.801 351.014C150.609 352.14 150.659 353.334 150.296 354.387C149.659 356.214 147.905 357.212 147.455 359.093C147.116 360.506 147.611 361.997 147.647 363.465C147.697 365.614 146.762 367.599 145.862 369.45L140.6 380.226C138.892 383.721 137.143 387.374 136.855 391.417C136.597 395.003 137.522 398.552 138.538 401.937C140.797 409.457 144.154 417.42 150.346 420.312C153.991 422.017 158.05 421.652 161.947 421.262C167.285 420.732 172.658 420.19 177.809 418.431C180.362 417.56 182.864 416.397 185.442 415.776C187.161 415.368 188.925 415.167 190.583 414.504C192.374 413.728 193.96 412.386 195.173 410.619C196.386 408.851 197.182 406.723 197.477 404.458C199.681 405.505 201.724 402.023 201.41 399.198C201.097 396.373 199.52 393.98 198.883 391.24C197.973 387.459 198.883 383.356 200.399 379.873C201.916 376.39 204.008 373.31 205.661 369.919C207.503 366.122 208.782 361.969 209.442 357.644C210.327 351.806 210.059 345.808 209.786 339.884L208.745 317.242C208.553 313.096 208.335 308.815 206.819 305.065C205.156 300.98 202.123 297.984 199.095 295.263C194.627 291.168 189.941 287.43 185.068 284.072C181.924 281.953 182.146 282.775 179.644 285.29C177.706 287.271 175.355 288.577 172.845 289.065Z" fill="#3F3D56"/>
<path d="M215.336 352.061C211.762 355.459 208.143 358.905 205.393 363.276C202.072 368.591 200.187 375.008 199.995 381.657C199.963 384.768 200.144 387.878 200.536 390.954C201.077 395.977 202.052 401.572 205.565 404.348C207.779 406.096 210.822 406.534 212.334 409.152C212.809 409.974 213.087 410.979 213.643 411.703C214.654 413.018 216.231 413.304 217.687 413.402C219.862 413.549 222.044 413.467 224.208 413.158C226.679 412.799 229.192 412.148 231.638 412.708C236.4 413.785 239.953 419.198 244.781 419.922C248.789 420.531 252.545 417.725 255.901 415.052C259.364 412.294 262.978 409.341 264.854 404.878C266.678 400.543 266.577 395.441 266.436 390.576C266.279 385.176 266.117 379.709 264.919 374.497C264.547 373.133 264.261 371.737 264.065 370.32C263.706 366.667 265.076 363.075 266.087 359.58C267.659 354.265 268.346 347.714 265.223 343.513C263.903 341.735 262.068 340.639 260.208 339.86C251.994 336.304 242.926 337.656 234.499 339.251C226.457 340.719 221.645 346.076 215.336 352.061Z" fill="#3F3D56"/>
<path d="M284.992 331.02C281.737 336.907 278.472 342.837 276.121 349.285C274.518 353.965 273.167 358.764 272.077 363.653C268.832 377.164 265.612 390.966 259.132 402.662C258.202 404.342 257.17 406.09 257.074 408.105C256.983 409.992 257.732 411.758 258.454 413.438C259.971 416.994 261.558 420.586 263.722 423.642C265.885 426.699 268.473 429.012 271.081 431.375C276.495 436.245 282.51 441.408 289.279 441.043C290.679 440.964 292.175 440.574 293.11 439.314C294.046 438.054 294.177 436.312 294.01 434.693C293.505 429.682 290.371 425.743 287.53 422.029C284.689 418.315 281.833 413.974 282.061 408.909C282.237 404.726 284.512 401.158 286.691 397.895C289.183 394.156 291.68 390.424 294.03 386.558C304.196 369.845 311.535 350.844 317.353 331.342C319.805 323.111 322.034 314.465 321.271 305.771C315.711 304.127 304.59 298.636 299.894 304.304C297.048 307.738 295.036 312.828 292.817 316.876L284.992 331.02Z" fill="#FBBEBE"/>
<path d="M331.942 273.856C328.419 281.257 325.662 289.149 323.733 297.357C323.262 299.342 322.843 301.436 323.202 303.445C323.591 305.601 324.809 307.372 325.729 309.272C326.649 311.172 327.296 313.577 326.462 315.537C322.519 315.908 318.612 314.612 314.801 313.327L302.851 309.309C301.861 309.079 300.932 308.561 300.147 307.799C298.762 306.222 298.868 303.573 299.136 301.308C301.476 282.763 308.993 265.667 311.808 247.225C312.218 244.565 312.647 241.618 314.406 239.919C319.461 235.109 330.905 239.182 333.524 246.148C336.45 253.88 335.252 266.909 331.942 273.856Z" fill="#6C63FF"/>
<path d="M267.973 210.476C267.523 210.756 267.017 211.084 266.881 211.657C266.85 211.968 266.877 212.284 266.959 212.582C267.041 212.88 267.177 213.152 267.356 213.38L272.456 222.025C277.486 230.549 282.526 239.128 288.344 246.902C292.735 252.768 297.546 258.159 302.72 263.012C304.175 264.376 305.727 265.795 306.44 267.847C303.261 256.509 303.826 244.133 308.017 233.283C309.685 229.021 311.889 225.07 313.623 220.832C313.786 220.599 313.897 220.319 313.945 220.02C313.992 219.72 313.975 219.411 313.894 219.122C313.813 218.833 313.672 218.574 313.483 218.37C313.295 218.166 313.066 218.024 312.819 217.958C308.401 215.218 303.569 213.562 299.171 210.774C295.719 208.582 292.6 205.733 289.501 202.926C286.736 200.424 283.056 196.004 279.644 194.95C275.959 193.806 276.106 197.854 274.918 201.233C273.552 205.183 271.1 208.446 267.973 210.476Z" fill="#FBBEBE"/>
<path opacity="0.1" d="M267.973 210.476C267.523 210.756 267.017 211.084 266.881 211.657C266.85 211.968 266.877 212.284 266.959 212.582C267.041 212.88 267.177 213.152 267.356 213.38L272.456 222.025C277.486 230.549 282.526 239.128 288.344 246.902C292.735 252.768 297.546 258.159 302.72 263.012C304.175 264.376 305.727 265.795 306.44 267.847C303.261 256.509 303.826 244.133 308.017 233.283C309.685 229.021 311.889 225.07 313.623 220.832C313.786 220.599 313.897 220.319 313.945 220.02C313.992 219.72 313.975 219.411 313.894 219.122C313.813 218.833 313.672 218.574 313.483 218.37C313.295 218.166 313.066 218.024 312.819 217.958C308.401 215.218 303.569 213.562 299.171 210.774C295.719 208.582 292.6 205.733 289.501 202.926C286.736 200.424 283.056 196.004 279.644 194.95C275.959 193.806 276.106 197.854 274.918 201.233C273.552 205.183 271.1 208.446 267.973 210.476Z" fill="black"/>
<path d="M299.247 244.93C296.937 241.788 293.818 239.712 291.083 237.106C287.151 233.356 284.042 228.522 281.039 223.681C275.529 214.774 269.974 203.864 272.719 193.239C269.802 192.898 267.285 195.784 265.91 198.895C264.535 202.007 263.827 205.55 262.114 208.406C259.511 212.747 255.083 214.768 250.958 216.753C241.891 221.123 233.131 226.366 224.764 232.43C221.402 234.866 218.056 237.478 215.488 241.045C212.738 244.851 211.014 249.569 208.679 253.74C204.13 261.941 197.215 268.096 189.541 271.579C187.014 272.736 184.305 273.637 182.045 275.475C177.203 279.414 175.186 287.269 176.333 294.173C177.481 301.077 181.388 306.958 186.084 311.135C190.78 315.312 196.128 317.777 201.547 320.213C206.089 322.222 210.661 324.138 215.261 325.96C218.645 327.371 222.106 328.502 225.618 329.345C232.083 330.776 238.73 330.423 245.266 331.294C251.241 332.085 257.11 333.906 263.11 334.411C269.11 334.916 275.464 333.954 280.352 329.747C284.239 326.405 286.827 321.357 289.218 316.353C295.425 303.449 300.969 290.098 305.818 276.376C307.249 272.315 320.523 249.313 317.217 246.342C300.571 231.383 306.096 255.152 304.509 253.326C302.386 250.878 301.168 247.542 299.247 244.93Z" fill="#6C63FF"/>
<path d="M278.628 231.17C275.054 222.512 272.638 213.246 270.237 204.028C269.575 201.471 268.907 198.707 269.62 196.174C270.48 193.13 273.229 190.53 272.421 187.48C265.991 189.915 258.525 193.733 257.256 201.714C256.978 203.456 257.029 205.313 256.356 206.884C255.047 209.964 251.711 210.622 248.875 211.145C240.626 212.734 232.427 216.741 226.775 224.15C225.825 225.368 224.93 226.75 223.742 227.663C222.883 228.273 221.969 228.763 221.018 229.124C215.488 231.517 209.801 234.5 206.243 240.132C204.408 243.03 203.235 246.507 201.188 249.198C198.418 252.851 194.338 254.677 191.341 258.081C189.319 260.346 187.878 263.219 186.544 266.124C181.408 277.302 177.642 290.41 180.367 302.764C181.787 309.223 184.916 314.977 186.599 321.345C188.92 330.021 188.692 339.915 193.044 347.373C195.789 352.061 200.035 355.16 204.382 357.498C214.055 362.681 224.682 364.742 235.217 363.477C239.123 362.93 243.004 362.141 246.843 361.115C256.008 358.838 265.268 356.36 273.593 351.209C287.792 342.423 298.008 326.721 307.764 311.5C309.619 308.602 311.489 305.68 312.819 302.368C314.118 299.208 314.902 295.786 315.776 292.425C318.733 281.095 322.893 269.813 322.504 257.953C322.52 256.533 322.287 255.124 321.822 253.819C321.427 252.845 320.811 251.992 320.462 251.012C319.845 249.259 320.123 247.231 319.688 245.399C318.48 240.284 312.9 239.31 308.482 239.353L307.066 269.363C306.849 273.868 306.45 278.867 303.665 281.886C302.473 283.121 300.986 283.866 299.419 284.014C297.852 284.162 296.287 283.705 294.95 282.708C291.978 280.389 291.558 276.34 291.578 272.462C291.609 267.591 291.28 263.128 289.991 258.458C287.322 248.772 282.379 240.272 278.628 231.17Z" fill="#192534"/>
<path d="M280.387 316.688C297.988 327.434 315.69 338.259 331.441 352.567C335.081 355.866 338.619 359.361 342.466 362.308C353.491 370.746 367.169 374.856 375.676 386.789C377.466 389.292 378.982 392.105 381.045 394.272C382.834 396.042 384.835 397.479 386.979 398.534C393.813 402.167 401.214 403.996 408.684 403.898C410.641 403.867 412.652 403.691 414.412 402.68C419.148 399.916 420.225 392.512 420.705 386.199C420.867 384.062 420.902 381.541 419.507 380.214C418.754 379.502 417.758 379.319 416.813 379.142C401.441 376.22 387.257 367.307 374.413 356.719C361.568 346.131 349.795 333.772 337.128 322.88C332.675 319.05 328.115 315.403 323.556 311.756L308.801 299.957C300.996 293.716 292.777 287.287 283.456 286.112C282.926 286.001 282.381 286.045 281.868 286.24C281.05 286.623 280.595 287.646 280.195 288.584C277.461 295.001 274.129 300.827 270.778 306.77C268.984 309.948 268.781 310.77 271.875 312.468C274.66 314.003 277.612 314.995 280.387 316.688Z" fill="#FBBEBE"/>
<path d="M314.973 494C315.174 494 315.367 493.904 315.509 493.732C315.651 493.561 315.731 493.329 315.731 493.087C315.731 492.844 315.651 492.612 315.509 492.441C315.367 492.27 315.174 492.173 314.973 492.173C314.771 492.173 314.579 492.27 314.436 492.441C314.294 492.612 314.214 492.844 314.214 493.087C314.214 493.329 314.294 493.561 314.436 493.732C314.579 493.904 314.771 494 314.973 494Z" fill="black"/>
<path d="M320.502 251.572C347.205 251.572 368.852 225.499 368.852 193.337C368.852 161.174 347.205 135.101 320.502 135.101C293.8 135.101 272.153 161.174 272.153 193.337C272.153 225.499 293.8 251.572 320.502 251.572Z" fill="#FBBEBE"/>
<path d="M282.5 216.047C283.359 210.817 288.343 208.174 292.756 207.821C297.222 207.532 301.672 208.665 305.658 211.106C309.644 213.548 313.026 217.211 315.463 221.727C316.485 218.463 317.174 215.061 317.515 211.596L325.603 212.32C326.505 212.489 327.429 212.388 328.292 212.028C329.333 211.468 329.975 210.202 330.516 208.984C334.054 201.026 336.42 191.261 343.062 187.066V198.025C344.881 197.599 346.594 196.675 348.069 195.325C349.544 193.975 350.741 192.234 351.569 190.238C352.025 193.271 352.751 196.237 353.733 199.084C353.895 199.559 354.122 200.083 354.532 200.205C354.731 200.222 354.932 200.188 355.12 200.105C355.309 200.022 355.48 199.892 355.623 199.724C358.72 196.893 361.522 193.622 363.969 189.982L373.573 210.037C379.122 193.16 379.425 174.437 374.427 157.312C369.428 140.187 359.465 125.812 346.368 116.83C344.147 115.289 341.83 113.96 339.438 112.854C333.185 110.017 326.447 109.11 319.779 108.562C310.302 107.783 300.298 107.813 291.978 113.287C287.504 116.227 283.789 120.562 280.2 124.922C275.347 130.803 270.495 137.019 267.912 144.709C266.127 150.018 265.516 155.771 264.975 161.458C264.646 164.898 264.343 168.454 265.157 171.772C265.723 174.067 266.79 176.131 267.507 178.365C268.7 182.079 268.887 186.134 269.347 190.08C270.368 198.798 272.732 207.211 276.318 214.884C277.076 216.509 278.047 218.238 279.558 218.652C281.069 219.066 282.884 217.057 282.085 215.474" fill="#192534"/>
<path d="M282.5 216.047C283.359 210.817 288.343 208.174 292.756 207.821C297.222 207.532 301.672 208.665 305.658 211.106C309.644 213.548 313.026 217.211 315.463 221.727C316.485 218.463 317.174 215.061 317.515 211.596L325.603 212.32C326.505 212.489 327.429 212.388 328.292 212.028C329.333 211.468 329.975 210.202 330.516 208.984C334.054 201.026 336.42 191.261 343.062 187.066V198.025C344.881 197.599 346.594 196.675 348.069 195.325C349.544 193.974 350.741 192.234 351.569 190.238C352.025 193.271 352.751 196.237 353.733 199.084C353.895 199.559 354.122 200.083 354.532 200.205C354.731 200.222 354.932 200.188 355.12 200.105C355.309 200.022 355.48 199.892 355.623 199.724C358.72 196.893 361.523 193.622 363.969 189.982L373.573 210.037C379.122 193.16 379.425 174.437 374.427 157.312C369.428 140.187 359.465 125.812 346.368 116.83C344.147 115.289 341.83 113.96 339.438 112.854C333.185 110.017 326.447 109.11 319.779 108.562C310.302 107.783 300.298 107.813 291.978 113.287C287.504 116.227 283.789 120.562 280.2 124.922C275.347 130.803 270.495 137.019 267.912 144.709C266.127 150.018 265.516 155.771 264.975 161.458C264.646 164.898 264.343 168.454 265.157 171.772C265.723 174.067 266.79 176.131 267.507 178.365C268.7 182.079 268.887 186.134 269.347 190.08C270.368 198.798 272.732 207.211 276.318 214.884C277.076 216.509 278.047 218.238 279.558 218.652C281.069 219.066 282.884 217.057 282.085 215.474" stroke="black" stroke-miterlimit="10"/>
<path d="M227.008 271.938C228.959 278.398 233.862 282.781 238.513 286.775L250.644 297.199C253.869 299.969 257.18 302.843 259.278 306.885C256.21 308.286 254.81 313.035 255.815 316.797C256.821 320.56 259.708 323.257 262.852 324.475C265.996 325.692 269.332 325.65 272.613 325.424C276.379 325.175 280.321 324.627 283.43 322.052L276.601 316.986C274.801 315.64 272.734 313.497 273.391 311.08L280.594 310.995C281.353 310.995 282.176 310.952 282.778 310.386C283.38 309.82 283.587 308.949 283.84 308.121C284.911 304.773 286.739 301.853 289.117 299.693C291.495 297.532 294.329 296.217 297.296 295.896C299.075 295.737 301.122 295.829 302.35 294.234C303.149 293.174 303.321 291.652 303.462 290.234C303.73 287.53 303.993 284.754 303.548 282.106C303.104 279.457 301.82 276.827 299.757 275.713C298.241 274.885 296.487 274.964 294.829 274.696C287.201 273.478 281.914 265.149 277.819 257.301C273.725 249.454 269.332 240.771 262.033 237.849C259.754 237.027 257.391 236.591 255.012 236.552C249.75 236.29 244.331 236.808 239.539 239.438C230.607 244.339 223.53 260.443 227.008 271.938Z" fill="#6C63FF"/>
<path opacity="0.1" d="M373.618 199.2L364.014 179.145C361.569 182.786 358.767 186.057 355.669 188.886C355.526 189.057 355.355 189.189 355.167 189.273C354.978 189.357 354.777 189.391 354.577 189.373C354.167 189.252 353.94 188.728 353.778 188.253C352.796 185.404 352.071 182.436 351.615 179.401C350.788 181.398 349.59 183.14 348.115 184.491C346.64 185.843 344.927 186.767 343.107 187.194V176.235C336.465 180.442 334.12 190.207 330.561 198.153C330.02 199.37 329.378 200.619 328.337 201.197C327.474 201.557 326.551 201.657 325.648 201.489L317.56 200.765C317.219 204.229 316.53 207.631 315.508 210.896C313.071 206.38 309.689 202.716 305.703 200.275C301.717 197.834 297.267 196.701 292.802 196.99C288.389 197.343 283.405 199.985 282.545 205.215L282.116 204.643C282.93 206.232 281.105 208.241 279.588 207.827C278.072 207.413 277.106 205.684 276.348 204.058C272.772 196.377 270.418 187.959 269.408 179.236C268.948 175.291 268.761 171.236 267.568 167.522C266.85 165.288 265.783 163.224 265.217 160.928C265.217 160.849 265.182 160.776 265.167 160.697C265.121 161.154 265.076 161.61 265.035 162.067C264.707 165.513 264.404 169.062 265.217 172.417C265.783 174.712 266.85 176.776 267.568 179.005C268.761 182.725 268.948 186.774 269.408 190.725C270.417 199.446 272.771 207.863 276.348 215.541C277.106 217.167 278.077 218.902 279.588 219.316C281.1 219.73 282.914 217.721 282.116 216.132L282.545 216.698C283.405 211.474 288.389 208.826 292.802 208.479C297.267 208.187 301.717 209.318 305.703 211.759C309.69 214.199 313.072 217.862 315.508 222.378C316.531 219.116 317.22 215.716 317.56 212.253L325.648 212.972C326.551 213.142 327.474 213.042 328.337 212.68C329.378 212.12 330.02 210.853 330.561 209.635C334.1 201.672 336.465 191.912 343.107 187.717V198.676C344.927 198.25 346.64 197.325 348.115 195.974C349.59 194.623 350.788 192.881 351.615 190.883C352.072 193.919 352.797 196.886 353.778 199.736C353.94 200.205 354.167 200.734 354.577 200.85C354.777 200.87 354.978 200.838 355.167 200.755C355.355 200.672 355.527 200.54 355.669 200.369C358.767 197.54 361.569 194.269 364.014 190.628L373.618 210.683C377.082 200.041 378.508 188.594 377.789 177.197C377.324 184.742 375.918 192.159 373.618 199.2Z" fill="black"/>
</g>
<defs>
<clipPath id="clip0_214_52">
<rect width="553" height="494" fill="white"/>
</clipPath>
</defs>
</svg>
